<svg xmlns="http://www.w3.org/2000/svg" width="1913" height="1346" viewBox="0 0 1913 1346">
  <defs>
    <style>
      .cls-1 {
        fill: #f9cb1e;
        fill-rule: evenodd;
      }
    </style>
  </defs>
  <path id="Transparency" class="cls-1" d="M351.759,495a4.168,4.168,0,0,0-3.536-3.537c-1.965-.393-2.358,1.965-3.144,2.358a34.376,34.376,0,0,1-6.287-.786c-18.862-1.179-37.724-.786-56.586,0-4.716.393-9.431,0.786-14.147,0.786-1.965.393-5.108,1.179-7.466,0.786-3.537-1.179,0-.393-2.358-2.751-4.715-4.322-6.287-7.466-13.361-9.824-6.68-1.965-18.469-2.75-23.577,3.144-2.751,3.144-2.751,9.431-7.859,12.575-3.144,1.964-9.824,1.178-13.361,1.571a62.667,62.667,0,0,0-11.789,2.358,197.7,197.7,0,0,1-22.005,3.144c-18.862,1.179-37.331,4.715-56.193,7.859-3.93.393-10.61,1.179-14.933,3.537-13.754,7.073,1.572,20.433,11,23.184,9.824,2.751,19.648,1.572,29.472.393,8.645-1.179,17.683-1.179,25.935-3.536,5.109-1.179,8.645-3.144,13.754-3.93,6.68-.786,13.36-1.572,20.041-2.751C178.072,564.551,165.1,601.1,151.35,637.248,137.2,673.4,123.057,709.552,110.876,746.1c-4.716,14.933-11.4,31.437-21.22,43.619C84.94,796,83.369,795.61,77.081,790.9c-13.361-10.61-21.613-26.722-31.044-40.082-2.751-3.93-9.038-13.361-14.147-7.859-1.965,1.964-1.572,6.68-1.572,9.431,0.393,13.36,5.5,31.436,11.789,43.225,8.252,15.718,22.792,27.9,40.475,29.472,31.829,2.751,49.119-45.19,57.765-67.982,11.788-32.222,27.114-63.266,40.081-94.7,2.751-7.073,3.93-13.753,5.5-20.434,2.357-8.645,7.073-16.9,10.61-25.149,6.287-14.146,11.4-29.079,18.862-42.832l14.932-29.865c2.358-4.323,5.5-8.645,7.073-13.361,0.393-1.965,0-4.322.786-5.894,3.537-7.074,14.933-5.109,21.613-5.895l28.293-4.715c4.715-.786,9.824-1.572,14.932-2.751a25.42,25.42,0,0,0,5.109-1.572c1.179-.393,2.358-2.75,2.75-2.75,6.681-2.358,16.112-1.572,23.185-3.144C338.4,503.249,352.545,502.07,351.759,495ZM202.042,586.163c-5.894,10.61-25.149,54.621-32.616,71.519,7.86-20.041,24.757-66.017,31.83-82.129,5.894-14.146,18.862-33.008,27.507-45.976C218.546,547.653,211.473,568.087,202.042,586.163ZM365.113,687.154c-2.358-10.217-11.789,3.536-13.754,5.894l-21.613,29.079-21.219,27.9-11.4,14.539c-1.179,1.572-9.824,12.575-9.038,12.575,0.786-.786,1.964-0.786,3.143-1.965-5.894,6.288-27.507,25.936-31.436,21.22-3.144-3.93,5.5-20.434,6.68-24.363,4.323-11.4,8.252-23.185,12.968-34.188,5.108-11.4,11-22.791,15.718-34.187,4.715-12.182-2.358-16.5-13.754-19.255-5.108-1.179-11.395-1.179-17.29-1.965a0.385,0.385,0,0,0,.393.393c5.109,0.786,12.575,1.179,18.862,3.144-9.431-2.751-21.22-1.572-28.686-3.537-5.108-1.179-8.252-1.179-7.466-7.073,0.786-7.859,9.038-16.111,11.789-23.578,0,0.393-2.751,7.467-2.358,7.467,1.965,0.785,5.108-10.217,5.108-11.789-0.393-1.965-5.108-7.859-5.5-5.5l0.786,1.179c-18.862-12.967-41.261,13.754-37.331,33.009,0.786,2.75,2.358,4.322,3.537,7.466,0.785,2.358,0,5.108,2.357,8.252,8.252,10.217,23.185,10.61,34.974,8.252-1.965,2.751-22.792,46.762-21.613,47.155l-2.751,9.824c-0.393-.393,1.179-3.536.393-3.536-2.751-.393-8.252,22.4-8.645,24.363-1.572,9.431-1.179,17.683,2.751,26.328,2.357,5.5,5.108,10.217,10.217,13.361,4.715,3.143,10.61,4.715,16.111,3.536,1.965-.786,9.431-5.894,7.466-5.5l2.751-1.179a2.082,2.082,0,0,0-.786,1.179c1.179,0.393,19.255-14.147,21.613-15.718,12.574-10.61,22.791-23.578,32.222-36.545,9.431-13.361,19.255-26.722,28.293-40.082A137.645,137.645,0,0,0,360,704.051C362.362,699.335,366.291,692.655,365.113,687.154ZM247.618,734.309a192.287,192.287,0,0,1,9.431-20.434c0.786-1.179,6.287-15.326,9.038-16.112-1.965,1.179-10.217,20.434-12.182,23.971l-7.466,17.29c-3.93,9.431-8.252,19.255-11,29.472C238.187,756.707,242.9,745.311,247.618,734.309Zm-9.431,75.448a21.934,21.934,0,0,0,9.824,7.859,23.321,23.321,0,0,1-9.038-5.5c0.393,0,.393.393,0.393,0.786a63.066,63.066,0,0,1-5.9-11,48.04,48.04,0,0,1-1.178-14.932,46.258,46.258,0,0,1,1.178-10.61v0.393a69.23,69.23,0,0,0-.785,15.718v1.965a1.217,1.217,0,0,1-.393-0.786,3.042,3.042,0,0,0,.393,1.179v0.393l1.571,8.252-1.179-5.108c0.786,2.358,2.751,6.68,4.716,11l-0.393-.393a2.082,2.082,0,0,0,.786,1.179v-0.393Zm11-129.677c1.965,1.572,5.5,1.965,9.038,2.358-3.144-.393-5.9-1.179-7.859-2.751a17.725,17.725,0,0,1-2.751-2.75C247.618,677.723,248.4,679.687,249.19,680.08Zm41.26,30.651-8.252,17.29,8.252-17.683v0.393Zm-56.586,64.445c0,0.393-.393.786-0.393,1.179v-0.393C233.471,775.569,233.864,775.569,233.864,775.176Zm56.979-65.624v0.393H290.45Zm0,0v0.393H290.45Zm-56.586,60.516a8.915,8.915,0,0,0,.393-1.572A8.915,8.915,0,0,1,234.257,770.068Zm1.572,36.152a1.372,1.372,0,0,1,.393.786C236.222,806.613,235.829,806.613,235.829,806.22Zm12.182-130.069a0.385,0.385,0,0,0-.393.393ZM536.437,687.94c-0.393-8.646-7.466-1.179-9.824,1.964-5.108,7.467-9.824,15.326-14.539,22.792-10.61,16.111-21.22,32.222-33.4,47.548-40.474,49.906-12.181-38.9-15.325-38.117-1.572.393-2.751,6.287-3.144,7.466a181.95,181.95,0,0,1,16.505-44.8c4.322-8.645,9.431-15.719,1.571-25.15-14.539-17.683-31.436-1.571-40.867,10.61-3.93-14.932-11.789-36.938-31.044-36.938-8.645,0-13.753,4.323-19.648,9.431-3.536,2.358-6.287,2.751-9.431,5.5-5.108,3.536-8.645,9.038-12.182,13.753-13.36,19.648-22.791,44.4-27.114,67.2-1.965,11-2.75,23.185.393,34.188,1.965,6.287,9.038,20.433,18.076,19.254,0.393,0-.393-0.392-1.572-1.178a20.285,20.285,0,0,0,16.5-2.358c0.393,0.786-4.323,2.751-4.323,2.751,4.323,6.68,36.545-32.223,38.9-35.76,5.109-7.073,8.645-14.539,13.361-22,3.536-5.5,9.038-12.575,12.967-18.469a53.477,53.477,0,0,0-.393,6.287c-7.073,22.4-13.753,46.762-4.322,69.947,4.322,11.788,14.932,22.791,28.293,20.433,11.789-1.964,21.613-13.36,28.686-22.4,8.645-10.217,16.111-21.613,23.577-33.4a290.925,290.925,0,0,0,17.29-33.008C528.578,706.016,537.223,696.978,536.437,687.94Zm-112.779,2.75c-1.965,2.751-3.929,5.5-5.5,8.252l-10.217,14.54q-10.02,14.736-21.22,28.293c-1.965,2.751-11.4,14.932-15.325,13.753-5.895-1.964.393-22.4,1.179-25.542,1.178-5.5,22-66.017,27.507-67.2-7.074-.393-29.865,70.733-31.044,76.627,3.144-19.255,10.217-38.117,18.076-55.8,4.323-9.038,14.147-33.009,27.114-33.009,7.073,0,8.645,14.54,9.824,19.255-0.393-.786-3.929-12.181-4.322-11.788-1.965,1.571,5.894,23.184,5.894,26.328S425.623,687.547,423.658,690.69Zm9.038,19.255s1.179-5.5,1.572-6.68l1.965-2.751ZM426.8,685.582v-3.93C427.981,683.224,427.981,684.4,426.8,685.582Zm243.628,3.536c-1.965-9.431-7.466-3.143-9.824.393-5.5,6.681-14.146,12.968-20.827,19.255-9.038,7.859-18.076,16.112-27.507,23.578-4.715,3.929-10.61,9.431-16.5,11.4-0.786.393-3.537,0.786-3.537,1.178l-0.392-.392s-0.393-6.288,0-6.681c0.392-5.108,1.964-10.217,3.536-14.932,0.393-.786,4.716-14.147,3.93-14.147l-1.965,2.358c2.358-4.715,5.5-9.431,8.252-14.539a53.658,53.658,0,0,0-13.753,20.826c-1.572,3.93-5.9,11-6.681,16.9,0.786-8.645,6.681-20.041,9.431-25.15,3.93-8.252,8.252-17.683,13.361-25.542,9.431-14.147,29.865-27.114,23.577-46.762-5.5-18.469-20.041-18.862-31.436-8.252-5.5,5.108-52.264,64.838-51.085,65.624,0,0,3.93-4.716,9.038-11.4L534.86,716.625c-0.393,0,3.929-6.68,3.536-7.073s-3.144,2.358-3.536,3.93c0.785-8.252,3.536-16.5,4.322-24.757,0.393-3.143,0-5.5.786-8.645,1.572-5.108,3.144-10.61,5.5-14.932,1.572-3.144,4.716-5.894,5.5-9.038,1.572-5.109,1.179-7.073,4.715-11.4,3.144-3.93,7.859-7.859,10.61-11.4,6.68-9.824-4.715-16.5-11-17.683-5.108-.786-10.217-1.179-14.932,1.572-5.109,3.144-3.93,5.894-5.109,10.217-1.178,5.5-5.108,11.789-7.073,16.9-3.143,8.252-5.894,16.5-8.645,24.756-3.144,8.253-6.287,16.112-8.645,24.364-1.965,6.68-1.572,12.968-2.358,19.255-0.786,7.073-1.965,11.789,1.572,18.076,3.93,6.68,14.54,16.9,21.613,8.252l1.572,3.144c6.68-14.54,16.9-27.507,25.149-41.654,3.537-6.287,9.824-10.61,14.932-17.29,7.074-9.431,13.361-18.862,21.22-27.9-1.179,1.965-6.287,11-5.894,11.4a9.264,9.264,0,0,0,1.965-1.965l-5.5,11c-0.393-.393,1.572-3.144.786-3.144-2.751-.786-11,21.22-11.789,23.185-2.75,8.645-3.143,16.5-3.929,25.542-0.393,4.323-1.179,8.645-1.179,12.968a30.3,30.3,0,0,0,2.358,12.967c1.179,2.358,2.75,5.5,4.715,7.466,0.393,0,4.716,3.93,2.751.786l2.358,2.358-1.179-.786c-0.393,1.965,14.146,9.824,16.5,10.61,11,3.537,22.792-9.038,29.865-16.5,9.431-10.217,17.29-22.006,25.935-33.009C657.07,711.91,672,698.549,670.43,689.118ZM797.743,690.3c-1.179-5.5-4.323-6.287-8.252-4.715-7.467,3.536-14.933,11.4-22.006,16.111-16.111,10.217-32.223,18.469-49.513,27.114a15.455,15.455,0,0,0-.786-2.358c0.393,1.965,0,2.751-.393,3.144-3.929-16.9-7.859-33.794-11-51.085,1.572,7.467,5.109,20.041,7.86,30.651-3.537-16.5-7.86-36.938-7.467-36.938-0.785.393-.785,1.179-0.785,1.965-0.786-4.716-1.965-10.61-1.179-15.718,0.393-5.895,3.536-11,5.5-16.5-0.393,2.751-1.179,6.288-1.179,6.288,2.358,0.393,3.93-14.147,3.93-15.719-0.393-2.357-5.5-9.824-5.5-7.859-10.61-9.824-31.436,11.789-34.58,21.22-2.358,6.287-2.358,12.968-1.965,19.648s2.358,12.575,4.323,18.862c1.179,4.715-.393,7.859,0,12.968,0.786,7.859,3.536,15.718,5.108,23.184,1.572,5.894,6.68,17.683,5.5,23.185-0.786,5.5-12.575,10.217-17.684,13.36-6.68,4.323-13.36,9.431-20.04,14.54-11.789,9.038-24.364,20.433-29.079,34.973-0.786,1.965-3.537,10.61-.786,12.182,0.393,0.393,1.572-6.288,1.965-7.074-5.109,25.936,20.433,38.51,44.4,38.9,27.114,0.786,45.976-14.932,55.407-39.3,3.93-10.609,5.108-21.612,4.716-32.615A129.989,129.989,0,0,0,722.3,757.1c-0.786-6.287-1.572-5.894,2.75-9.431,3.144-2.358,7.86-3.929,11-5.5,12.575-6.681,23.971-14.54,35.367-22.792,8.252-5.894,27.9-16.111,26.328-28.686V690.3ZM638.987,825.475c-10.216-3.144,0-19.255,3.537-24.363,5.894-7.86,14.54-13.754,22.4-19.255L676.711,774c1.179-.786,8.646-6.68,6.288-5.894l4.715-2.751-2.75,2.358a9.846,9.846,0,0,0,2.75-1.572c0.393,9.431.393,18.862-2.357,28.293-0.393,1.572-7.86,17.29-11,20.434l1.965-1.572a44.769,44.769,0,0,1-12.182,10.61c0-.393,3.536-2.751,3.143-3.144l-11,4.323C650.776,826.261,644.489,827.44,638.987,825.475Zm49.513,11.4a84.353,84.353,0,0,1-30.651,6.68c19.255-1.179,39.3-10.61,50.692-26.721C704.219,825.475,698.717,832.155,688.5,836.871Zm28.686-111.6a95.1,95.1,0,0,0-2.357-11A100.758,100.758,0,0,0,717.186,725.271Zm5.109,40.867a2.945,2.945,0,0,1-.393-1.965A17.021,17.021,0,0,0,722.3,766.138Zm269.171-80.949c-2.358.393-22.792,6.68-21.613,9.824a1.327,1.327,0,0,0,1.179.786c-6.68,2.75-15.325,3.143-22.006,7.466-7.466,5.108-14.539,10.217-22.4,14.539,7.073-12.181,13.753-25.149,18.076-38.117,1.572-4.715,10.61-33.794,4.715-36.938-0.786-.393-1.178,3.144-1.571,5.109,0.393-15.719-4.716-39.689-25.936-41.261-12.967-.786-25.149,15.325-32.222,23.971-16.112,20.433-30.258,42.439-44.405,63.659-3.929,5.894-43.225,69.553-43.225,69.553s2.751-3.929,6.287-9.038c-3.536,5.895-7.073,12.182-10.217,18.469,1.572-5.894,16.5-52.656,25.936-80.163a16.378,16.378,0,0,0,1.571-3.93l2.358-6.68v0.393c3.537-10.61,7.073-21.22,10.217-32.223,0,1.179-1.572,7.074-1.179,7.074,2.358,0.393,5.5-16.112,3.93-16.112l-1.179,1.965c1.179-5.894,3.144-8.645-.393-15.325-2.751-5.895-7.466-11.4-14.146-12.968-12.968-3.536-19.255,7.073-18.47,17.29,0,1.572,1.965,2.358,1.965,3.93,0,1.965-1.965,5.5-2.357,7.073-2.751,8.252-4.716,16.111-7.86,23.971-1.571,4.322-16.111,45.19-16.111,45.19a3.924,3.924,0,0,0,1.572-1.965c-1.179,3.537-2.358,7.073-3.93,10.61-0.393-.393,1.179-3.144.393-3.144-3.929-.786-13.753,32.223-14.539,35.367a154.2,154.2,0,0,1-6.288,22c-1.178,3.93-2.75,7.859-3.929,12.182,0,0.393-1.965,9.824,0,6.287a10,10,0,0,0-.786,2.751c0-.393-0.393-0.786-0.393-1.179-1.179.393-1.965,8.645-1.965,9.038-1.572,4.323-3.536,7.466-5.5,11.4-5.109,12.575-7.859,26.328-9.824,39.689-3.144,20.434-12.575,51.084-2.358,69.946,3.537,6.681,14.54,20.434,23.185,12.182,3.929-3.93,3.929-12.968,4.322-17.683,2.358-12.968,4.323-26.328,7.073-39.3l3.537-18.076c0.393-.786,3.537-15.325,2.358-14.932a8.553,8.553,0,0,0-1.965,3.143c1.965-6.287,4.716-12.181,7.073-18.862,3.144-9.431,5.5-18.469,10.217-27.114,5.5-8.645,10.217-18.076,15.326-26.721,3.929-7.073,7.466-16.111,11.788-22.006,1.179-1.572,3.537-2.357,5.5-3.929,3.929-4.323,6.68-10.217,9.824-14.933,5.894-9.431,11-18.862,17.29-27.507,2.751-3.929,34.187-47.941,37.331-50.691a8.2,8.2,0,0,0-2.358,1.571,130.661,130.661,0,0,1,9.824-10.61c0.393,0.393-2.358,2.751-1.965,3.144,0.786,0.393,18.862-13.753,22.006-14.146,8.645-1.572,5.5,14.932,4.323,19.255-1.965,9.038-7.074,17.683-11.4,25.542-2.358,4.322-4.716,8.252-6.681,12.575-0.392.393-3.536,7.859-2.357,7.073l-2.358,3.536a10.21,10.21,0,0,0,1.179-2.75c-1.572,0-3.537,6.68-3.93,7.859-2.357,3.93-5.5,7.073-8.645,10.217-8.252,9.431-15.718,19.255-23.97,28.293-6.288,6.68-14.54,18.469-23.971,20.827-6.68,1.571-11.789-1.965-8.252,8.645,2.358,7.466,11,24.756,20.434,24.756,8.645,0,19.255-12.968,24.363-18.469,5.895-6.68,12.575-12.968,18.862-20.041,1.572-2.358,19.648-23.97,22.4-25.149h-0.393c3.93-1.965,7.859-.393,13.361-4.323,3.143-2.357,4.715-4.715,8.252-7.073,2.75-1.572,3.929-3.537,5.108-4.715a0.385,0.385,0,0,0,.393.393c3.93-3.93,9.431-2.751,14.54-6.288,6.287-4.322,14.146-9.824,19.648-14.932,7.073-6.288,16.9-9.824,20.04-20.434C994.61,684.4,992.645,684.4,991.466,685.189Zm-201.2,40.082v0.393c-0.393,5.108-3.929,11-5.894,15.718-2.751,7.466-5.109,14.932-7.466,22.4-5.109,15.719-11,31.437-17.291,46.37a319.648,319.648,0,0,0-13.36,40.081c4.322-19.255,11.4-38.117,16.9-56.193,5.109-16.5,12.968-32.615,19.255-48.727,0.786-1.964,8.252-17.683,7.466-20.826A1.217,1.217,0,0,1,790.271,725.271Zm17.29,11.788a101.151,101.151,0,0,1-3.929,12.968C804.811,746.1,805.99,741.382,807.561,737.059ZM861.4,672.614l-7.467,11C856.288,680.08,858.646,676.151,861.4,672.614Zm64.052,47.548c0.393-1.179,2.358-1.572,3.537-2.358Zm-93.917-45.976a8.614,8.614,0,0,0-1.179,3.144Zm-2.751,6.68,1.572-3.536Zm20.434,9.824V690.3a0.785,0.785,0,0,0,.393-0.786C850,689.118,849.608,689.9,849.215,690.69Zm-20.434-9.824a2.042,2.042,0,0,1-.786,1.572Zm-83.307,172.9a0.785,0.785,0,0,1,.393-0.786A0.785,0.785,0,0,1,745.474,853.768Zm64.445-121.424a0.385,0.385,0,0,1-.393.393Zm357.2-44.4c-0.4-8.646-7.47-1.179-9.83,1.964-5.11,7.467-9.82,15.326-14.54,22.792-10.61,16.111-21.22,32.222-33.4,47.548-40.47,49.906-12.18-38.9-15.32-38.117-1.58.393-2.76,6.287-3.15,7.466a182.089,182.089,0,0,1,16.51-44.8c4.32-8.645,9.43-15.719,1.57-25.15-14.54-17.683-31.44-1.571-40.87,10.61-3.93-14.932-11.79-36.938-31.04-36.938-8.65,0-13.76,4.323-19.65,9.431-3.54,2.358-6.29,2.751-9.43,5.5-5.11,3.536-8.648,9.038-12.184,13.753-13.361,19.648-22.792,44.4-27.115,67.2-1.964,11-2.75,23.185.393,34.188,1.965,6.287,9.038,20.433,18.077,19.254,0.392,0-.393-0.392-1.572-1.178a20.275,20.275,0,0,0,16.5-2.358c0.4,0.786-4.32,2.751-4.32,2.751,4.32,6.68,36.55-32.223,38.9-35.76,5.11-7.073,8.65-14.539,13.36-22,3.54-5.5,9.04-12.575,12.97-18.469a53.883,53.883,0,0,0-.39,6.287c-7.07,22.4-13.75,46.762-4.32,69.947,4.32,11.788,14.93,22.791,28.29,20.433,11.79-1.964,21.61-13.36,28.68-22.4,8.65-10.217,16.12-21.613,23.58-33.4a290.925,290.925,0,0,0,17.29-33.008C1159.26,706.016,1167.9,696.978,1167.12,687.94Zm-112.78,2.75a98.689,98.689,0,0,0-5.5,8.252l-10.22,14.54q-10.02,14.736-21.22,28.293c-1.97,2.751-11.4,14.932-15.33,13.753-5.891-1.964.4-22.4,1.18-25.542,1.18-5.5,22.01-66.017,27.51-67.2-7.07-.393-29.87,70.733-31.045,76.627,3.145-19.255,10.215-38.117,18.075-55.8,4.32-9.038,14.15-33.009,27.12-33.009,7.07,0,8.64,14.54,9.82,19.255-0.39-.786-3.93-12.181-4.32-11.788-1.97,1.571,5.89,23.184,5.89,26.328S1056.3,687.547,1054.34,690.69Zm9.03,19.255s1.18-5.5,1.58-6.68l1.96-2.751Zm-5.89-24.363v-3.93C1058.66,683.224,1058.66,684.4,1057.48,685.582Zm242.06,1.572c-2.36-10.217-11.79,3.536-13.76,5.894l-21.61,29.079-21.22,27.9-11.4,14.539c-1.17,1.572-9.82,12.575-9.03,12.575,0.78-.786,1.96-0.786,3.14-1.965-5.89,6.288-27.51,25.936-31.44,21.22-3.14-3.93,5.51-20.434,6.68-24.363,4.33-11.4,8.26-23.185,12.97-34.188,5.11-11.4,11-22.791,15.72-34.187,4.72-12.182-2.36-16.5-13.75-19.255-5.11-1.179-11.4-1.179-17.29-1.965a0.383,0.383,0,0,0,.39.393c5.11,0.786,12.57,1.179,18.86,3.144-9.43-2.751-21.22-1.572-28.68-3.537-5.11-1.179-8.26-1.179-7.47-7.073,0.78-7.859,9.04-16.111,11.79-23.578,0,0.393-2.75,7.467-2.36,7.467,1.96,0.785,5.11-10.217,5.11-11.789-0.39-1.965-5.11-7.859-5.5-5.5l0.78,1.179c-18.86-12.967-41.26,13.754-37.33,33.009,0.79,2.75,2.36,4.322,3.54,7.466,0.78,2.358,0,5.108,2.36,8.252,8.25,10.217,23.18,10.61,34.97,8.252-1.97,2.751-22.79,46.762-21.61,47.155l-2.75,9.824c-0.4-.393,1.18-3.536.39-3.536-2.75-.393-8.25,22.4-8.65,24.363-1.57,9.431-1.17,17.683,2.75,26.328,2.36,5.5,5.11,10.217,10.22,13.361,4.72,3.143,10.61,4.715,16.11,3.536,1.97-.786,9.43-5.894,7.47-5.5l2.75-1.179a2.107,2.107,0,0,0-.79,1.179c1.18,0.393,19.26-14.147,21.62-15.718,12.57-10.61,22.79-23.578,32.22-36.545,9.43-13.361,19.25-26.722,28.29-40.082a138.556,138.556,0,0,0,11.4-19.255C1296.79,699.335,1300.72,692.655,1299.54,687.154Zm-117.5,47.155a193.478,193.478,0,0,1,9.43-20.434c0.79-1.179,6.29-15.326,9.04-16.112-1.96,1.179-10.22,20.434-12.18,23.971l-7.47,17.29c-3.93,9.431-8.25,19.255-11,29.472C1172.61,756.707,1177.33,745.311,1182.04,734.309Zm-9.43,75.448a21.95,21.95,0,0,0,9.82,7.859,23.282,23.282,0,0,1-9.03-5.5c0.39,0,.39.393,0.39,0.786a62.625,62.625,0,0,1-5.89-11,47.771,47.771,0,0,1-1.18-14.932,45.981,45.981,0,0,1,1.18-10.61v0.393a69.111,69.111,0,0,0-.79,15.718v1.965a1.222,1.222,0,0,1-.39-0.786,3.059,3.059,0,0,0,.39,1.179v0.393l1.57,8.252-1.18-5.108c0.79,2.358,2.75,6.68,4.72,11l-0.39-.393a2.084,2.084,0,0,0,.78,1.179v-0.393Zm11-129.677c1.97,1.572,5.51,1.965,9.04,2.358-3.14-.393-5.89-1.179-7.86-2.751a17.6,17.6,0,0,1-2.75-2.75C1182.04,677.723,1182.83,679.687,1183.61,680.08Zm41.26,30.651-8.25,17.29,8.25-17.683v0.393Zm-56.58,64.445c0,0.393-.39.786-0.39,1.179v-0.393C1167.9,775.569,1168.29,775.569,1168.29,775.176Zm56.98-65.624v0.393h-0.4Zm0,0v0.393h-0.4Zm-56.59,60.516a8.971,8.971,0,0,0,.39-1.572A8.971,8.971,0,0,1,1168.68,770.068Zm1.57,36.152a1.365,1.365,0,0,1,.4.786C1170.65,806.613,1170.25,806.613,1170.25,806.22Zm12.18-130.069a0.384,0.384,0,0,0-.39.393Zm238.92,9.431c0,0.393,0,.393-0.39,0v-0.393c-6.29-10.61-14.54,3.929-18.08,9.038-6.68,9.038-12.97,17.683-20.04,25.935-5.9,7.073-12.18,14.147-16.9,21.613a12.255,12.255,0,0,1-.78,2.751c-1.58,2.357-3.93,4.322-5.9,6.68-3.54,3.536-7.07,7.466-11,11-5.9,5.5-38.9,36.545-43.23,16.5-2.35-9.824.79-22.006,2.75-31.437,1.18-5.108,2.36-9.824,3.15-14.932,0.78-3.93-.4-7.859,1.57-11.789,1.18-2.358,1.57-1.965,4.32-2.751l6.68-2.357a71.868,71.868,0,0,0,12.58-5.5,128.087,128.087,0,0,0,16.5-12.182c12.18-10.216,25.15-22.4,30.26-37.724,2.75-8.645,3.14-18.076-2.36-25.542-5.11-6.68-13.75-10.217-21.61-11.789-21.22-3.929-37.33,8.253-49.51,24.364a157.761,157.761,0,0,0-30.66,64.445c-2.75,11.4-4.32,22.792-6.28,34.58s-3.15,22.792,3.14,33.8c-0.39-3.93-1.18-7.466-1.18-11,0-1.965.79-3.93,0.79-5.5,0-.786-0.79-3.144-0.79-4.323,0-3.537.79-6.287,1.57-9.824,0.4-3.537,0-7.073.4-10.61,0.39-3.929,1.96-7.073,3.53-10.61,1.18-3.143,1.58-5.894,2.75-9.038,1.18-2.75,1.97-5.894,3.15-9.038,0.39-1.965,2.36-4.322,3.53-6.68-1.17,3.537-3.53,6.68-4.32,9.824-1.18,4.715-.39,9.824-0.78,14.539-0.79,5.109-2.36,10.217-3.15,15.719-0.78,5.108-3.14,9.824-3.93,14.932-0.78,4.716-2.35,8.252-1.96,12.968a48.738,48.738,0,0,0,.78,7.859c0.4,3.144,2.36,5.108,4.33,7.466a52.554,52.554,0,0,0,25.93,16.9c7.07,1.965,13.36,1.572,20.04-1.965,9.43-5.108,17.69-12.967,24.76-20.433,6.68-7.467,11.79-15.719,17.68-23.578,5.5-7.073,12.18-13.753,17.69-20.827l21.22-27.507,12.18-16.111C1421.74,690.69,1422.92,688.725,1421.35,685.582Zm-97.46,4.322a3,3,0,0,0,.4-1.179c5.89-12.574,10.21-25.935,18.47-38.117l7.07-9.431c1.57-1.964,4.32-5.5,7.07-6.287,5.9-1.179,7.47,9.038,7.08,12.968l-1.58,8.252c-0.39,2.358.4,3.929,0,5.894-0.78,2.358-2.75,3.537-3.92,5.5l-6.69,8.645a113.5,113.5,0,0,1-33,26.328C1320.75,698.156,1321.93,693.834,1323.89,689.9Zm231.85-.786c-1.97-9.431-7.47-3.143-9.83.393-5.5,6.681-14.15,12.968-20.83,19.255-9.03,7.859-18.07,16.112-27.5,23.578-4.72,3.929-10.61,9.431-16.51,11.4-0.78.393-3.53,0.786-3.53,1.178l-0.4-.392s-0.39-6.288,0-6.681c0.4-5.108,1.97-10.217,3.54-14.932,0.39-.786,4.72-14.147,3.93-14.147l-1.97,2.358c2.36-4.715,5.51-9.431,8.26-14.539a53.718,53.718,0,0,0-13.76,20.826c-1.57,3.93-5.89,11-6.68,16.9,0.79-8.645,6.68-20.041,9.43-25.15,3.93-8.252,8.26-17.683,13.36-25.542,9.44-14.147,29.87-27.114,23.58-46.762-5.5-18.469-20.04-18.862-31.43-8.252-5.51,5.108-52.27,64.838-51.09,65.624,0,0,3.93-4.716,9.04-11.4l-23.19,33.794c-0.39,0,3.93-6.68,3.54-7.073s-3.14,2.358-3.54,3.93c0.79-8.252,3.54-16.5,4.33-24.757,0.39-3.143,0-5.5.78-8.645,1.57-5.108,3.15-10.61,5.5-14.932,1.58-3.144,4.72-5.894,5.51-9.038,1.57-5.109,1.17-7.073,4.71-11.4,3.14-3.93,7.86-7.859,10.61-11.4,6.68-9.824-4.71-16.5-11-17.683-5.11-.786-10.22-1.179-14.93,1.572-5.11,3.144-3.93,5.894-5.11,10.217-1.18,5.5-5.11,11.789-7.08,16.9-3.14,8.252-5.89,16.5-8.64,24.756-3.14,8.253-6.29,16.112-8.65,24.364-1.96,6.68-1.57,12.968-2.35,19.255-0.79,7.073-1.97,11.789,1.57,18.076,3.93,6.68,14.54,16.9,21.61,8.252l1.57,3.144c6.68-14.54,16.9-27.507,25.15-41.654,3.54-6.287,9.83-10.61,14.93-17.29,7.08-9.431,13.36-18.862,21.22-27.9-1.17,1.965-6.28,11-5.89,11.4a9.027,9.027,0,0,0,1.96-1.965l-5.5,11c-0.39-.393,1.57-3.144.79-3.144-2.75-.786-11,21.22-11.79,23.185-2.75,8.645-3.14,16.5-3.93,25.542-0.39,4.323-1.18,8.645-1.18,12.968a30.228,30.228,0,0,0,2.36,12.967c1.18,2.358,2.75,5.5,4.72,7.466,0.39,0,4.71,3.93,2.75.786l2.35,2.358-1.18-.786c-0.39,1.965,14.15,9.824,16.51,10.61,11,3.537,22.79-9.038,29.86-16.5,9.43-10.217,17.29-22.006,25.94-33.009C1542.37,711.91,1557.31,698.549,1555.74,689.118Zm113.55,20.827c3.54-5.108,17.69-20.041,11.79-26.721-7.86-7.859-28.29,24.756-31.43,28.686-6.29,8.252-12.97,16.111-19.26,23.97-3.54,4.323-7.07,8.646-11,12.575-0.79.786-8.25,10.217-7.47,10.217a15.947,15.947,0,0,0,3.54-1.965c-6.68,7.073-15.72,13.361-23.97,19.648-5.5,3.93-16.11,12.575-22.79,7.859-2.75-1.572-3.54-5.5-4.33-8.252-2.75-12.182-.78-26.721,1.18-39.3,4.33-26.328,12.97-52.263,23.58-77.02,5.11-11.395,10.22-22.791,19.26-31.436,0.78-.786,2.35.786,2.75,0.393,0.78-.393-2.36-1.572-2.75-1.179-4.33,2.358-7.08,7.073-9.44,11.4-7.07,11.395-12.57,23.97-17.29,36.545a311.122,311.122,0,0,1,12.19-29.472c2.75-5.109,5.89-13.361,11-17.29,13.36-10.61,8.25,24.363,6.68,29.472,0-.393,1.57-9.038,1.18-9.038-0.79,0-6.29,20.04-6.29,20.04l1.97-1.571c-1.97,3.143-5.9,5.5-.79,9.038,6.29,4.322,18.47-3.144,21.22-8.645,2.75-5.895,3.54-13.754,3.93-19.648,0.78-10.217-1.97-16.112-5.5-23.971-3.93-8.252-7.47-13.36-18.08-14.932-8.64-1.179-16.5,2.358-23.18,7.466-9.83,7.073-17.29,16.111-23.58,26.328-1.57,2.751-15.72,31.437-15.33,31.83l1.58-1.965c-1.97,4.323-3.15,8.645-4.72,12.575-0.39,0,.79-3.537.39-3.537-2.35-.393-9.43,21.22-9.82,23.185a92.262,92.262,0,0,0-5.11,25.149c-0.39,9.431-1.96,18.862-2.36,28.686a104.786,104.786,0,0,0,.79,15.718c0,1.572,3.14,9.824,3.14,7.467l1.97,6.68a37.207,37.207,0,0,1-1.97-4.323c-1.96,2.358,8.65,17.683,11.01,20.041,3.14,3.537,7.85,5.109,12.57,5.895,15.72,1.964,30.65-7.074,42.05-16.5,19.64-16.5,38.9-36.938,53.44-58.158C1655.93,726.842,1662.61,718.59,1669.29,709.945Zm-115.13-28.686a58.877,58.877,0,0,1-3.54,11.789c-1.18,2.751-4.72,5.108-5.11,7.073,0.79-6.68,5.9-13.36,9.04-20.827A17.136,17.136,0,0,1,1554.16,681.259Zm-14.54,45.976c-1.57,2.751-1.57,7.86-1.57,12.182-0.4-4.715-.4-9.824,1.17-14.539C1539.22,724.878,1540.4,726.449,1539.62,727.235Zm28.29-9.431c1.57-6.287,3.54-12.574,5.5-18.862Zm-27.51,1.965a18.729,18.729,0,0,0-1.18,3.537c0-1.965,0-3.93,1.97-4.716Zm34.58-25.542a0.787,0.787,0,0,0-.39.786,5.019,5.019,0,0,1,.39-2.358v1.572Zm307.69-5.5c-1.18-12.574-13.37-.393-17.29,3.144-6.68,5.5-13.76,10.217-20.44,15.718-19.25,14.54-37.33,29.865-55.41,45.191,7.47-21.22,18.47-42.44,30.26-61.7,2.36-3.929,4.32-7.466,3.54-12.182-1.97-10.609-16.11-14.932-25.54-13.36-8.26,1.572-9.04,5.5-10.61,11-3.15,9.824-14.54,18.469-21.22,25.935-2.75,3.144-21.22,25.542-21.62,25.542,1.18,0,1.97-.786,2.75-1.179-8.64,9.038-22,18.469-32.61,26.722-4.32,3.536-16.9,16.111-23.58,13.753-18.86-5.894,20.04-81.342,18.86-81.735s-13.75,30.651-16.5,37.724c6.29-19.255,14.54-38.117,23.18-56.193-0.39,1.572-1.57,4.715-.78,4.715,1.18,0.393,7.07-12.574,5.89-12.967-0.39,0-.78.393-1.18,0.393,1.18-1.572,3.15-2.358,3.93-4.716,1.18-5.108-4.71-10.61-9.03-12.182-9.44-3.929-20.44,1.572-24.76,10.61-1.18,1.572-2.36,4.323-3.14,5.109-1.18,2.357-3.15,3.143-4.72,5.5-4.32,7.466-6.68,16.111-9.82,23.971-1.18,3.536-14.94,42.832-12.97,43.225l0.78-.786a68.9,68.9,0,0,0-1.57,8.645c-0.78-.393.4-2.751-0.39-2.751-3.93-.393-5.5,24.757-5.11,27.508,0.79,7.859,5.9,17.683,13.36,21.612a19.553,19.553,0,0,0,12.58,1.965c1.57,0,9.03-3.144,6.28-3.144l2.36-.786-0.78.786c0.39,0.393,14.53-5.894,16.89-6.68,11.4-4.715,21.22-13.753,29.47-22.4l25.94-25.935c5.89-5.894,11-14.932,17.29-19.648-3.54,11-7.07,22.006-10.22,33.009-4.32,12.967-6.68,29.079-12.96,40.867-5.11,9.431-18.08,18.077-25.55,25.543-10.61,9.824-21.22,19.648-31.04,29.865-13.75,14.539-25.94,31.043-38.12,47.155-12.57,16.9-29.86,40.867-14.14,61.3,10.61,14.54,30.25,23.578,47.94,18.862,16.11-3.929,22.4-17.29,30.25-29.865,25.15-41.653,38.91-89.987,53.45-135.963,2.35-6.681,3.93-18.469,7.86-23.971s11.78-10.217,16.5-14.539c11.79-10.61,23.97-20.827,36.15-30.651l34.19-27.114C1876.38,699.728,1883.45,696.192,1882.67,688.725ZM1713.69,892.671v0.393l-1.57,3.143V896.6a0.384,0.384,0,0,0-.39.393,3.979,3.979,0,0,1-.39,1.179,245.235,245.235,0,0,1-13.76,26.721c-4.32,7.074-10.21,18.469-18.47,21.22-15.72,5.5-16.89-20.434-14.54-29.079,5.9-21.219,21.62-39.689,34.98-56.586a407.559,407.559,0,0,1,44.79-49.12C1734.91,838.443,1725.48,865.95,1713.69,892.671Zm22.79-5.5a83.019,83.019,0,0,1,7.08-14.539c-2.36,7.073-4.32,14.146-8.65,21.22l-3.53,6.287A127.891,127.891,0,0,1,1736.48,887.169Zm13.37-42.832-7.08,17.29c0.79-3.536,1.57-7.466,3.15-9.824,1.57-3.536,4.71-9.824,3.93-14.146C1750.24,839.621,1750.63,842.372,1749.85,844.337Zm-12.58,33.4,1.57-2.357A8.053,8.053,0,0,1,1737.27,877.738Z"/>
</svg>
